<svg xmlns="http://www.w3.org/2000/svg" xmlns:xlink="http://www.w3.org/1999/xlink" width="309" zoomAndPan="magnify" viewBox="0 0 231.75 52.499999" height="70" preserveAspectRatio="xMidYMid meet" version="1.0"><defs><g/><clipPath id="e52b80dfe4"><rect x="0" width="68" y="0" height="50"/></clipPath><clipPath id="a2e223bad8"><path d="M 8.65625 0.386719 L 28.554688 0.386719 L 28.554688 6.035156 L 8.65625 6.035156 Z M 8.65625 0.386719 " clip-rule="nonzero"/></clipPath><clipPath id="a0c342114d"><path d="M 11.453125 0.386719 L 25.742188 0.386719 L 28.535156 6.035156 L 8.65625 6.035156 Z M 11.453125 0.386719 " clip-rule="nonzero"/></clipPath><clipPath id="3789340008"><path d="M 0.65625 0.386719 L 20.539062 0.386719 L 20.539062 6.035156 L 0.65625 6.035156 Z M 0.65625 0.386719 " clip-rule="nonzero"/></clipPath><clipPath id="fe820da044"><path d="M 3.453125 0.386719 L 17.742188 0.386719 L 20.535156 6.035156 L 0.65625 6.035156 Z M 3.453125 0.386719 " clip-rule="nonzero"/></clipPath><clipPath id="4ae4674e6d"><rect x="0" width="21" y="0" height="7"/></clipPath><clipPath id="29f1f59a8c"><path d="M 1.167969 19.875 L 16.160156 19.875 L 16.160156 25.921875 L 1.167969 25.921875 Z M 1.167969 19.875 " clip-rule="nonzero"/></clipPath><clipPath id="0ff5bb35bf"><path d="M 3.957031 19.875 L 16.144531 19.875 L 13.355469 25.921875 L 1.167969 25.921875 Z M 3.957031 19.875 " clip-rule="nonzero"/></clipPath><clipPath id="c57d4a7569"><path d="M 0.167969 0.875 L 15.160156 0.875 L 15.160156 6.921875 L 0.167969 6.921875 Z M 0.167969 0.875 " clip-rule="nonzero"/></clipPath><clipPath id="6632521aab"><path d="M 2.957031 0.875 L 15.144531 0.875 L 12.355469 6.921875 L 0.167969 6.921875 Z M 2.957031 0.875 " clip-rule="nonzero"/></clipPath><clipPath id="f99e96af85"><rect x="0" width="16" y="0" height="7"/></clipPath><clipPath id="a124b48d55"><path d="M 21.8125 6.035156 L 34.996094 6.035156 L 34.996094 25.964844 L 21.8125 25.964844 Z M 21.8125 6.035156 " clip-rule="nonzero"/></clipPath><clipPath id="abf18a3884"><path d="M 28.40625 6.035156 L 21.8125 6.035156 L 28.40625 25.921875 L 34.996094 25.921875 Z M 28.40625 6.035156 " clip-rule="nonzero"/></clipPath><clipPath id="a1dcb7b562"><path d="M 0.8125 0.0351562 L 13.996094 0.0351562 L 13.996094 19.964844 L 0.8125 19.964844 Z M 0.8125 0.0351562 " clip-rule="nonzero"/></clipPath><clipPath id="bc91e303a4"><path d="M 7.40625 0.0351562 L 0.8125 0.0351562 L 7.40625 19.921875 L 13.996094 19.921875 Z M 7.40625 0.0351562 " clip-rule="nonzero"/></clipPath><clipPath id="27ff641859"><rect x="0" width="14" y="0" height="20"/></clipPath><clipPath id="152a57214c"><path d="M 4.375 10.382812 L 19.773438 10.382812 L 19.773438 15.527344 L 4.375 15.527344 Z M 4.375 10.382812 " clip-rule="nonzero"/></clipPath><clipPath id="ea45ac0c81"><path d="M 7.164062 10.382812 L 19.761719 10.382812 L 16.976562 15.527344 L 4.375 15.527344 Z M 7.164062 10.382812 " clip-rule="nonzero"/></clipPath><clipPath id="06aac89283"><path d="M 0.375 0.382812 L 15.773438 0.382812 L 15.773438 5.527344 L 0.375 5.527344 Z M 0.375 0.382812 " clip-rule="nonzero"/></clipPath><clipPath id="f47db1bd52"><path d="M 3.164062 0.382812 L 15.761719 0.382812 L 12.976562 5.527344 L 0.375 5.527344 Z M 3.164062 0.382812 " clip-rule="nonzero"/></clipPath><clipPath id="10477bd2e8"><rect x="0" width="16" y="0" height="6"/></clipPath><clipPath id="d98d42d1e4"><rect x="0" width="36" y="0" height="27"/></clipPath><clipPath id="a50effcd8f"><path d="M 112 12 L 230.53125 12 L 230.53125 38 L 112 38 Z M 112 12 " clip-rule="nonzero"/></clipPath><clipPath id="fc2329e710"><rect x="0" width="119" y="0" height="26"/></clipPath></defs><g transform="matrix(1, 0, 0, 1, 39, 0)"><g clip-path="url(#e52b80dfe4)"><g fill="#ffffff" fill-opacity="1"><g transform="translate(0.99724, 36.308033)"><g><path d="M 8.65625 -5.15625 L 16.171875 -5.15625 L 16.171875 0 L 1.921875 0 L 1.921875 -24.203125 L 8.65625 -24.203125 Z M 8.65625 -5.15625 "/></g></g></g><g fill="#ffffff" fill-opacity="1"><g transform="translate(17.851551, 36.308033)"><g><path d="M 8.65625 -5.15625 L 16.171875 -5.15625 L 16.171875 0 L 1.921875 0 L 1.921875 -24.203125 L 8.65625 -24.203125 Z M 8.65625 -5.15625 "/></g></g></g><g fill="#ffffff" fill-opacity="1"><g transform="translate(34.705861, 36.308033)"><g><path d="M 20.15625 -24.203125 L 20.15625 -18.84375 L 13.703125 -18.84375 L 13.703125 0 L 6.96875 0 L 6.96875 -18.84375 L 0.578125 -18.84375 L 0.578125 -24.203125 Z M 20.15625 -24.203125 "/></g></g></g><g fill="#ffffff" fill-opacity="1"><g transform="translate(55.439067, 36.308033)"><g><path d="M 8.65625 -24.203125 L 8.65625 0 L 1.921875 0 L 1.921875 -24.203125 Z M 8.65625 -24.203125 "/></g></g></g></g></g><g transform="matrix(1, 0, 0, 1, 5, 10)"><g clip-path="url(#d98d42d1e4)"><g clip-path="url(#a2e223bad8)"><g clip-path="url(#a0c342114d)"><g transform="matrix(1, 0, 0, 1, 8, 0)"><g clip-path="url(#4ae4674e6d)"><g clip-path="url(#3789340008)"><g clip-path="url(#fe820da044)"><path fill="#ffffff" d="M 0.65625 0.386719 L 20.53125 0.386719 L 20.53125 6.035156 L 0.65625 6.035156 Z M 0.65625 0.386719 " fill-opacity="1" fill-rule="nonzero"/></g></g></g></g></g></g><g clip-path="url(#29f1f59a8c)"><g clip-path="url(#0ff5bb35bf)"><g transform="matrix(1, 0, 0, 1, 1, 19)"><g clip-path="url(#f99e96af85)"><g clip-path="url(#c57d4a7569)"><g clip-path="url(#6632521aab)"><path fill="#ffffff" d="M 0.167969 0.875 L 15.136719 0.875 L 15.136719 6.921875 L 0.167969 6.921875 Z M 0.167969 0.875 " fill-opacity="1" fill-rule="nonzero"/></g></g></g></g></g></g><g clip-path="url(#a124b48d55)"><g clip-path="url(#abf18a3884)"><g transform="matrix(1, 0, 0, 1, 21, 6)"><g clip-path="url(#27ff641859)"><g clip-path="url(#a1dcb7b562)"><g clip-path="url(#bc91e303a4)"><path fill="#ffffff" d="M 0.8125 0.0351562 L 13.996094 0.0351562 L 13.996094 19.910156 L 0.8125 19.910156 Z M 0.8125 0.0351562 " fill-opacity="1" fill-rule="nonzero"/></g></g></g></g></g></g><g clip-path="url(#152a57214c)"><g clip-path="url(#ea45ac0c81)"><g transform="matrix(1, 0, 0, 1, 4, 10)"><g clip-path="url(#10477bd2e8)"><g clip-path="url(#06aac89283)"><g clip-path="url(#f47db1bd52)"><path fill="#ffffff" d="M 0.375 0.382812 L 15.773438 0.382812 L 15.773438 5.527344 L 0.375 5.527344 Z M 0.375 0.382812 " fill-opacity="1" fill-rule="nonzero"/></g></g></g></g></g></g></g></g><g clip-path="url(#a50effcd8f)"><g transform="matrix(1, 0, 0, 1, 112, 12)"><g clip-path="url(#fc2329e710)"><g fill="#ffffff" fill-opacity="1"><g transform="translate(1.194454, 18.383738)"><g><path d="M 0.640625 -6.109375 C 0.640625 -7.304688 0.914062 -8.375 1.46875 -9.3125 C 2.03125 -10.257812 2.785156 -11 3.734375 -11.53125 C 4.691406 -12.0625 5.734375 -12.328125 6.859375 -12.328125 C 8.160156 -12.328125 9.316406 -12.007812 10.328125 -11.375 C 11.335938 -10.738281 12.070312 -9.835938 12.53125 -8.671875 L 10.125 -8.671875 C 9.8125 -9.316406 9.375 -9.796875 8.8125 -10.109375 C 8.25 -10.421875 7.597656 -10.578125 6.859375 -10.578125 C 6.054688 -10.578125 5.335938 -10.394531 4.703125 -10.03125 C 4.078125 -9.675781 3.585938 -9.160156 3.234375 -8.484375 C 2.878906 -7.804688 2.703125 -7.015625 2.703125 -6.109375 C 2.703125 -5.210938 2.878906 -4.425781 3.234375 -3.75 C 3.585938 -3.070312 4.078125 -2.546875 4.703125 -2.171875 C 5.335938 -1.804688 6.054688 -1.625 6.859375 -1.625 C 7.597656 -1.625 8.25 -1.78125 8.8125 -2.09375 C 9.375 -2.414062 9.8125 -2.894531 10.125 -3.53125 L 12.53125 -3.53125 C 12.070312 -2.363281 11.335938 -1.460938 10.328125 -0.828125 C 9.316406 -0.203125 8.160156 0.109375 6.859375 0.109375 C 5.722656 0.109375 4.679688 -0.15625 3.734375 -0.6875 C 2.785156 -1.21875 2.03125 -1.957031 1.46875 -2.90625 C 0.914062 -3.851562 0.640625 -4.921875 0.640625 -6.109375 Z M 0.640625 -6.109375 "/></g></g></g><g fill="#ffffff" fill-opacity="1"><g transform="translate(19.981631, 18.383738)"><g><path d="M 6.859375 0.125 C 5.734375 0.125 4.691406 -0.140625 3.734375 -0.671875 C 2.785156 -1.203125 2.03125 -1.941406 1.46875 -2.890625 C 0.914062 -3.847656 0.640625 -4.921875 0.640625 -6.109375 C 0.640625 -7.304688 0.914062 -8.375 1.46875 -9.3125 C 2.03125 -10.257812 2.785156 -11 3.734375 -11.53125 C 4.691406 -12.0625 5.734375 -12.328125 6.859375 -12.328125 C 8.003906 -12.328125 9.050781 -12.0625 10 -11.53125 C 10.957031 -11 11.707031 -10.257812 12.25 -9.3125 C 12.800781 -8.375 13.078125 -7.304688 13.078125 -6.109375 C 13.078125 -4.921875 12.800781 -3.847656 12.25 -2.890625 C 11.707031 -1.941406 10.957031 -1.203125 10 -0.671875 C 9.050781 -0.140625 8.003906 0.125 6.859375 0.125 Z M 6.859375 -1.609375 C 7.671875 -1.609375 8.390625 -1.789062 9.015625 -2.15625 C 9.648438 -2.53125 10.144531 -3.054688 10.5 -3.734375 C 10.851562 -4.421875 11.03125 -5.210938 11.03125 -6.109375 C 11.03125 -7.015625 10.851562 -7.804688 10.5 -8.484375 C 10.144531 -9.160156 9.648438 -9.675781 9.015625 -10.03125 C 8.390625 -10.394531 7.671875 -10.578125 6.859375 -10.578125 C 6.054688 -10.578125 5.335938 -10.394531 4.703125 -10.03125 C 4.078125 -9.675781 3.585938 -9.160156 3.234375 -8.484375 C 2.878906 -7.804688 2.703125 -7.015625 2.703125 -6.109375 C 2.703125 -5.210938 2.878906 -4.421875 3.234375 -3.734375 C 3.585938 -3.054688 4.078125 -2.53125 4.703125 -2.15625 C 5.335938 -1.789062 6.054688 -1.609375 6.859375 -1.609375 Z M 6.859375 -1.609375 "/></g></g></g><g fill="#ffffff" fill-opacity="1"><g transform="translate(38.961412, 18.383738)"><g><path d="M 11.3125 0 L 9.3125 0 L 3.3125 -9.09375 L 3.3125 0 L 1.3125 0 L 1.3125 -12.1875 L 3.3125 -12.1875 L 9.3125 -3.125 L 9.3125 -12.1875 L 11.3125 -12.1875 Z M 11.3125 0 "/></g></g></g><g fill="#ffffff" fill-opacity="1"><g transform="translate(56.838113, 18.383738)"><g><path d="M 9.171875 -12.171875 L 9.171875 -10.546875 L 5.9375 -10.546875 L 5.9375 0 L 3.9375 0 L 3.9375 -10.546875 L 0.6875 -10.546875 L 0.6875 -12.171875 Z M 9.171875 -12.171875 "/></g></g></g><g fill="#ffffff" fill-opacity="1"><g transform="translate(71.965904, 18.383738)"><g><path d="M 7.640625 0 L 4.828125 -4.875 L 3.3125 -4.875 L 3.3125 0 L 1.3125 0 L 1.3125 -12.171875 L 5.515625 -12.171875 C 6.453125 -12.171875 7.242188 -12.003906 7.890625 -11.671875 C 8.535156 -11.347656 9.019531 -10.910156 9.34375 -10.359375 C 9.664062 -9.816406 9.828125 -9.207031 9.828125 -8.53125 C 9.828125 -7.738281 9.59375 -7.015625 9.125 -6.359375 C 8.664062 -5.710938 7.957031 -5.273438 7 -5.046875 L 10.015625 0 Z M 3.3125 -6.46875 L 5.515625 -6.46875 C 6.265625 -6.46875 6.828125 -6.648438 7.203125 -7.015625 C 7.585938 -7.390625 7.78125 -7.894531 7.78125 -8.53125 C 7.78125 -9.15625 7.59375 -9.644531 7.21875 -10 C 6.84375 -10.363281 6.273438 -10.546875 5.515625 -10.546875 L 3.3125 -10.546875 Z M 3.3125 -6.46875 "/></g></g></g><g fill="#ffffff" fill-opacity="1"><g transform="translate(88.284318, 18.383738)"><g><path d="M 6.859375 0.125 C 5.734375 0.125 4.691406 -0.140625 3.734375 -0.671875 C 2.785156 -1.203125 2.03125 -1.941406 1.46875 -2.890625 C 0.914062 -3.847656 0.640625 -4.921875 0.640625 -6.109375 C 0.640625 -7.304688 0.914062 -8.375 1.46875 -9.3125 C 2.03125 -10.257812 2.785156 -11 3.734375 -11.53125 C 4.691406 -12.0625 5.734375 -12.328125 6.859375 -12.328125 C 8.003906 -12.328125 9.050781 -12.0625 10 -11.53125 C 10.957031 -11 11.707031 -10.257812 12.25 -9.3125 C 12.800781 -8.375 13.078125 -7.304688 13.078125 -6.109375 C 13.078125 -4.921875 12.800781 -3.847656 12.25 -2.890625 C 11.707031 -1.941406 10.957031 -1.203125 10 -0.671875 C 9.050781 -0.140625 8.003906 0.125 6.859375 0.125 Z M 6.859375 -1.609375 C 7.671875 -1.609375 8.390625 -1.789062 9.015625 -2.15625 C 9.648438 -2.53125 10.144531 -3.054688 10.5 -3.734375 C 10.851562 -4.421875 11.03125 -5.210938 11.03125 -6.109375 C 11.03125 -7.015625 10.851562 -7.804688 10.5 -8.484375 C 10.144531 -9.160156 9.648438 -9.675781 9.015625 -10.03125 C 8.390625 -10.394531 7.671875 -10.578125 6.859375 -10.578125 C 6.054688 -10.578125 5.335938 -10.394531 4.703125 -10.03125 C 4.078125 -9.675781 3.585938 -9.160156 3.234375 -8.484375 C 2.878906 -7.804688 2.703125 -7.015625 2.703125 -6.109375 C 2.703125 -5.210938 2.878906 -4.421875 3.234375 -3.734375 C 3.585938 -3.054688 4.078125 -2.53125 4.703125 -2.15625 C 5.335938 -1.789062 6.054688 -1.609375 6.859375 -1.609375 Z M 6.859375 -1.609375 "/></g></g></g><g fill="#ffffff" fill-opacity="1"><g transform="translate(107.264099, 18.383738)"><g><path d="M 3.3125 -1.609375 L 7.421875 -1.609375 L 7.421875 0 L 1.3125 0 L 1.3125 -12.171875 L 3.3125 -12.171875 Z M 3.3125 -1.609375 "/></g></g></g></g></g></g></svg>